<svg width="16" height="16" viewBox="0 0 16 16" fill="none" xmlns="http://www.w3.org/2000/svg">
<g clip-path="url(#clip0_24_200)">
<path d="M5.53052 3.96753V4.5302V5.49923C5.53052 6.86092 6.63832 7.96872 8 7.96872C9.36169 7.96872 10.4695 6.86092 10.4695 5.49923V4.5302V3.96753H5.53052Z" fill="#F6F6F6"/>
<path d="M12.0013 0.779053H3.99892C3.73997 0.779053 3.53003 0.98899 3.53003 1.24794C3.53003 1.50689 3.73997 1.71683 3.99892 1.71683H5.53062V3.02972H10.4696V1.71683H11.5324V2.24824C11.5324 2.50719 11.7423 2.71713 12.0013 2.71713C12.2602 2.71713 12.4702 2.50719 12.4702 2.24824V1.24794C12.4702 0.98899 12.2602 0.779053 12.0013 0.779053Z" fill="#F6F6F6"/>
<path d="M14.6402 12.0324C14.6922 11.8856 14.7209 11.7279 14.7209 11.5635V5.93682C14.7209 5.16118 14.0898 4.53015 13.3142 4.53015H11.4074V5.49919C11.4074 6.54666 10.9321 7.48512 10.186 8.11062C11.2436 9.31698 11.7244 11.2084 11.8922 12.0324H14.6402Z" fill="#F6F6F6"/>
<path d="M4.10795 12.0324C4.27572 11.2084 4.75649 9.31698 5.81411 8.11062C5.06805 7.48509 4.59278 6.54666 4.59278 5.49919V4.53015H2.68596C1.91033 4.53015 1.2793 5.16118 1.2793 5.93682V11.5635C1.2793 11.7279 1.3079 11.8856 1.35995 12.0324H4.10795Z" fill="#F6F6F6"/>
<path d="M11.5021 12.9702C11.5016 12.9702 11.501 12.9703 11.5005 12.9703C11.5 12.9703 11.4996 12.9702 11.4991 12.9702H0C0.0494522 14.2196 1.08079 15.2209 2.34207 15.2209H13.6579C14.9192 15.2209 15.9505 14.2196 16 12.9702H11.5021Z" fill="#F6F6F6"/>
<path d="M7.99996 10.1978L9.76808 9.09276C9.6437 8.91126 9.51457 8.75156 9.38075 8.61383C8.95844 8.80179 8.4912 8.90648 7.99996 8.90648C7.50863 8.90648 7.04137 8.80176 6.61902 8.61377C6.4852 8.7515 6.35607 8.91114 6.23169 9.09266L7.99996 10.1978Z" fill="#F6F6F6"/>
<path d="M8.46899 12.0324H10.9318C10.8279 11.5677 10.6412 10.8638 10.3443 10.169C10.3063 10.0802 10.2677 9.99432 10.2286 9.91089L8.46899 11.0107V12.0324Z" fill="#F6F6F6"/>
<path d="M7.53122 11.0106L5.77164 9.91089C5.73028 9.99901 5.68955 10.0898 5.64957 10.1839C5.35533 10.8762 5.1709 11.572 5.06812 12.0324H7.53122V11.0106Z" fill="#F6F6F6"/>
</g>
<defs>
<clipPath id="clip0_24_200">
<rect width="16" height="16" fill="white"/>
</clipPath>
</defs>
</svg>
