<svg width="16" height="16" viewBox="0 0 16 16" fill="none" xmlns="http://www.w3.org/2000/svg">
<path d="M15.9643 10.0544C16.0366 9.87913 15.9963 9.67769 15.8627 9.54356L13.9564 7.66856C13.8686 7.58069 13.7495 7.53125 13.625 7.53125H2.37502C2.25052 7.53125 2.13149 7.58069 2.04361 7.66859L0.137365 9.54359C0.00370862 9.67772 -0.0365726 9.87913 0.0357399 10.0545C0.108052 10.2298 0.279271 10.3438 0.468771 10.3438H6.12502C6.24952 10.3438 6.36855 10.2943 6.45643 10.2064L8.00002 8.66284L9.54361 10.2064C9.63149 10.2943 9.75052 10.3438 9.87502 10.3438H15.5313C15.7208 10.3438 15.892 10.2298 15.9643 10.0544Z" fill="#565656"/>
<path d="M7.53125 10.4573L7.11925 10.8693C6.85375 11.1347 6.50037 11.2812 6.125 11.2812H1.90625V15.5312C1.90625 15.7903 2.11591 16 2.375 16H7.53125V10.4573Z" fill="#565656"/>
<path d="M14.0938 15.5312V11.2812H9.875C9.49962 11.2812 9.14625 11.1347 8.88075 10.8692L8.46875 10.4573V16H13.625C13.8841 16 14.0938 15.7903 14.0938 15.5312Z" fill="#565656"/>
<path d="M4.71875 5.65625H3.78125C3.52216 5.65625 3.3125 5.86591 3.3125 6.125V6.59375H5.1875V6.125C5.1875 5.86591 4.97784 5.65625 4.71875 5.65625Z" fill="#565656"/>
<path d="M7.53125 2.84375C7.27216 2.84375 7.0625 3.05341 7.0625 3.3125V6.59375H8.9375V3.3125C8.9375 3.05341 8.72784 2.84375 8.46875 2.84375H7.53125Z" fill="#565656"/>
<path d="M11.2812 0C11.0222 0 10.8125 0.209656 10.8125 0.46875V6.59375H12.6875V0.46875C12.6875 0.209656 12.4778 0 12.2188 0H11.2812Z" fill="#565656"/>
</svg>
