<svg width="16" height="16" viewBox="0 0 16 16" fill="none" xmlns="http://www.w3.org/2000/svg">
<g clip-path="url(#clip0_24_11)">
<path d="M9.54406 7.91625C11.7266 7.91625 13.5019 6.14062 13.5019 3.95813C13.5019 1.77563 11.7266 0 9.54406 0C7.36156 0 5.58594 1.77563 5.58594 3.95813C5.58594 6.14062 7.36156 7.91625 9.54406 7.91625ZM9.07531 1.63156V1.52406C9.07531 1.265 9.285 1.05531 9.54406 1.05531C9.80281 1.05531 10.0128 1.265 10.0128 1.52406V1.63219C10.5706 1.75187 10.9903 2.24875 10.9903 2.84188C10.9903 3.10063 10.7803 3.31063 10.5216 3.31063C10.2625 3.31063 10.0528 3.10063 10.0528 2.84188C10.0528 2.67656 9.91812 2.54187 9.75281 2.54187H9.3325C9.16719 2.54187 9.0325 2.67656 9.0325 2.84188C9.0325 2.93656 9.07781 3.02656 9.15406 3.08281L9.54406 3.37156L10.4916 4.07281C10.8028 4.30312 10.9903 4.67156 10.9928 5.05906V5.06344C10.995 5.39406 10.8684 5.70594 10.6359 5.94125C10.4634 6.11594 10.2478 6.23312 10.0128 6.2825V6.39219C10.0128 6.65125 9.80281 6.86094 9.54406 6.86094C9.285 6.86094 9.07531 6.65125 9.07531 6.39219V6.28406C8.84656 6.23531 8.63625 6.12281 8.46625 5.95469C8.23094 5.7225 8.10031 5.4125 8.09844 5.08187C8.09687 4.82312 8.30531 4.61188 8.56406 4.61031H8.56719C8.82469 4.61031 9.03437 4.81844 9.03594 5.07625C9.03656 5.23803 9.16672 5.37437 9.3375 5.37437C9.5965 5.37281 9.50003 5.37337 9.75719 5.37187C9.92356 5.37056 10.0566 5.23553 10.0553 5.06969V5.06531C10.0547 4.97156 10.0094 4.88219 9.93375 4.82625L9.54406 4.53781L8.59625 3.83656C8.2825 3.60406 8.095 3.23219 8.095 2.84188C8.095 2.2475 8.51594 1.75031 9.07531 1.63156Z" fill="#565656"/>
<path d="M3.13083 10.1685C3.01068 9.96023 2.74377 9.88776 2.53418 10.0087L0.32924 11.2815C0.120459 11.4023 0.048834 11.6694 0.169365 11.8784L2.42293 15.7816C2.54355 15.9903 2.81043 16.062 3.01958 15.9415L5.22452 14.6684C5.43362 14.5478 5.50496 14.2808 5.3844 14.0717L3.13083 10.1685Z" fill="#565656"/>
<path d="M15.7649 9.38935C15.5527 9.09466 15.1421 9.0281 14.8477 9.24029C13.9546 9.88373 12.2396 11.1194 12.1033 11.2178C12.0405 11.2712 11.9746 11.3197 11.9058 11.3625C11.6361 11.5322 11.3233 11.6228 10.9967 11.6228H8.75143C8.49268 11.6228 8.28268 11.4131 8.28268 11.154C8.28268 10.8947 8.49299 10.6853 8.75143 10.6853H11.1527C11.5055 10.6853 11.788 10.3915 11.7733 10.0381C11.7596 9.70279 11.4733 9.44279 11.1377 9.44279H9.30986C9.18611 9.31185 9.05049 9.19185 8.90518 9.08466C8.40549 8.71622 7.78799 8.49841 7.11955 8.49841C5.93111 8.49841 4.74861 9.24716 4.2583 10.2465L6.1758 13.5675H9.77268C10.4789 13.5675 11.1746 13.3868 11.7867 13.0347C11.9989 12.9128 12.2261 12.7662 12.4724 12.5893C13.5042 11.8481 15.6139 10.3081 15.6155 10.3072C15.9105 10.0953 15.9774 9.68404 15.7649 9.38935Z" fill="#565656"/>
</g>
<defs>
<clipPath id="clip0_24_11">
<rect width="16" height="16" fill="white"/>
</clipPath>
</defs>
</svg>
