<svg width="16" height="16" viewBox="0 0 16 16" fill="none" xmlns="http://www.w3.org/2000/svg">
<g clip-path="url(#clip0_24_80)">
<path d="M11.8536 9.74807C11.9332 9.74807 12 9.69662 12 9.62975V6.3708C12 6.3065 11.9363 6.25248 11.8536 6.25248H5.09694V4.11757C5.09694 4.01211 4.94099 3.96067 4.84869 4.03526L0.0429651 7.91668C-0.0143217 7.96298 -0.0143217 8.03757 0.0429651 8.08387L4.84551 11.9653C4.93781 12.0399 5.09375 11.9859 5.09375 11.883V9.74807H11.8536Z" fill="#565656"/>
<path d="M14.6626 0H6.42578V3.04683H13C13.0806 3.04683 13.1482 3.13376 13.1482 3.23726V12.7627C13.1482 12.8662 13.0806 12.9532 13 12.9532H6.42578V16H14.6659C15.4006 16 16 15.2383 16 14.2862V1.71384C16 0.769987 15.4006 0 14.6626 0Z" fill="#565656"/>
</g>
<defs>
<clipPath id="clip0_24_80">
<rect width="16" height="16" fill="white"/>
</clipPath>
</defs>
</svg>
