<svg width="16" height="16" viewBox="0 0 16 16" fill="none" xmlns="http://www.w3.org/2000/svg">
<path d="M7.99998 16C9.09124 16 10.031 15.4207 10.4433 14.5938H5.55664C5.96898 15.4207 6.90874 16 7.99998 16Z" fill="#565656"/>
<path d="M13.5111 7.74569V6.71875C13.5111 4.53681 11.8609 2.68747 9.60001 2.08344V1.40625C9.60001 0.630844 8.88225 0 8.00002 0C7.11778 0 6.40002 0.630844 6.40002 1.40625V2.08344C4.13905 2.68747 2.48892 4.53678 2.48892 6.71875V7.74569C2.48892 9.66231 1.65771 11.4797 0.148414 12.8631C0.000503776 12.9986 -0.0410606 13.1987 0.0427792 13.3714C0.126619 13.5442 0.319685 13.6562 0.533373 13.6562H15.4667C15.6803 13.6562 15.8734 13.5442 15.9572 13.3714C16.0411 13.1987 15.9995 12.9986 15.8516 12.8631C14.3423 11.4797 13.5111 9.66228 13.5111 7.74569ZM8.53335 1.89775C8.35781 1.88287 8.17993 1.875 8.00002 1.875C7.82011 1.875 7.64222 1.88287 7.46669 1.89775V1.40625C7.46669 1.14778 7.70594 0.9375 8.00002 0.9375C8.2941 0.9375 8.53335 1.14778 8.53335 1.40625V1.89775Z" fill="#565656"/>
<path d="M14.9335 6.71878C14.9335 6.97765 15.1723 7.18753 15.4668 7.18753C15.7614 7.18753 16.0002 6.97765 16.0002 6.71878C16.0002 4.84065 15.168 3.07494 13.657 1.7469C13.4488 1.56387 13.1111 1.56384 12.9028 1.7469C12.6945 1.92997 12.6945 2.22675 12.9028 2.40981C14.2123 3.56078 14.9335 5.09106 14.9335 6.71878Z" fill="#565656"/>
<path d="M0.533332 7.18751C0.827873 7.18751 1.06666 6.97763 1.06666 6.71876C1.06666 5.09107 1.78787 3.56079 3.09738 2.40982C3.30566 2.22676 3.30566 1.92998 3.09738 1.74692C2.88913 1.56385 2.55142 1.56385 2.34314 1.74692C0.83214 3.07495 0 4.84063 0 6.71876C0 6.97763 0.23879 7.18751 0.533332 7.18751Z" fill="#565656"/>
</svg>
