<svg width="16" height="16" viewBox="0 0 16 16" fill="none" xmlns="http://www.w3.org/2000/svg">
<path d="M5.26475 3.84142C5.38169 3.8778 5.49986 3.89623 5.61644 3.89929C5.83909 3.53564 6.25401 3.3568 6.65452 3.41943C6.75462 3.29577 6.83372 3.1516 6.88389 2.99035C7.09593 2.30822 6.71495 1.58324 6.03282 1.37121C5.35069 1.15905 4.62583 1.54003 4.41368 2.22216C4.20152 2.90429 4.58262 3.62927 5.26475 3.84142Z" fill="#565656"/>
<path d="M11.5862 2.22247C11.3742 1.54034 10.6492 1.15936 9.9671 1.37139C9.28497 1.58343 8.90399 2.30841 9.11602 2.99054C9.32818 3.67267 10.053 4.05365 10.7352 3.84161C11.4173 3.62945 11.7984 2.9046 11.5862 2.22247Z" fill="#565656"/>
<path d="M15.9326 13.6862L14.8237 11.2549V8.94446L13.6539 5.21155C13.3115 4.1831 12.164 3.66333 11.1646 4.08569L10.6681 4.29553C10.422 4.39783 10.3065 4.57031 10.3065 4.57031L8.75557 5.04822L6.78438 3.92822C6.50289 3.76843 6.14522 3.86694 5.98531 4.14831C5.8254 4.42969 5.92391 4.78735 6.2054 4.94726L7.80697 5.8573L7.81087 5.85693C8.17904 5.82556 8.51827 5.99182 8.72432 6.26733C8.84798 6.25928 8.74215 6.27283 10.7048 5.67395L10.3441 5.88355L10.247 5.93982L9.55294 6.93018L8.92635 6.81177C8.96053 7.29712 8.65218 7.72949 8.20418 7.86817L9.70699 8.1521C9.93111 8.19446 10.1623 8.10279 10.2956 7.9126L10.8608 7.1062L11.5468 8.72925L9.88814 10.749C9.81051 10.8434 9.75741 10.9555 9.73348 11.0753L9.17806 13.8489C9.09725 14.252 9.3586 14.6443 9.76168 14.725C10.1629 14.8054 10.5567 14.546 10.6378 14.1412L11.1567 11.5501L12.632 9.75355L13.3349 9.66822V11.4166C13.3349 11.5232 13.3579 11.6285 13.4021 11.7255L14.5781 14.304C14.7485 14.6774 15.1897 14.8432 15.5642 14.6723C15.9383 14.5017 16.1032 14.0602 15.9326 13.6862Z" fill="#565656"/>
<path d="M5.21839 7.70074L7.94837 7.46783C8.27088 7.44025 8.51002 7.15655 8.48243 6.83404C8.45496 6.51166 8.17103 6.27252 7.84876 6.29998L5.50928 6.49969L4.82593 5.1773L5.57166 6.04803L5.58692 6.04681L5.81934 5.49676C5.8512 5.42144 5.87195 5.34417 5.88294 5.2669C5.59376 5.05389 5.44288 4.71038 5.46656 4.36627C5.35621 4.29632 5.30457 4.2879 4.83533 4.08563C3.83692 3.66363 2.68872 4.18218 2.34595 5.21148C1.6648 7.31573 1.17615 8.94452 1.17615 8.94452V11.2549L0.0672601 13.6862C-0.103272 14.0602 0.0616449 14.5018 0.435669 14.6723C0.810425 14.8433 1.25159 14.6773 1.42175 14.304L2.59778 11.7255C2.64197 11.6286 2.66492 11.5233 2.66492 11.4167V9.66827L3.3678 9.7536L4.84314 11.5501L5.36219 14.1413C5.443 14.545 5.83558 14.8056 6.23817 14.725C6.64124 14.6442 6.9026 14.252 6.82191 13.8489L6.26636 11.0754C6.24244 10.9555 6.18934 10.8436 6.11182 10.7491L4.45301 8.72931L4.7129 8.11456C4.4845 8.02667 4.30701 7.83002 4.24927 7.58307L3.83362 5.81012L4.64795 7.38605C4.75684 7.59662 4.98206 7.72101 5.21839 7.70074Z" fill="#565656"/>
</svg>
